<svg xmlns="http://www.w3.org/2000/svg" width="420" height="320" viewBox="0 0 420 320">
<rect width="100%" height="100%" fill="#f8fafc"/>
<text x="16" y="22" font-family="Arial" font-size="14" fill="#0f172a">level_012</text>
<line x1="187.5" y1="30.0" x2="187.5" y2="82.0" stroke="#64748b" stroke-width="3"/>
<line x1="187.5" y1="82.0" x2="30.0" y2="134.0" stroke="#64748b" stroke-width="3"/>
<line x1="187.5" y1="82.0" x2="333.8" y2="82.0" stroke="#64748b" stroke-width="3"/>
<line x1="30.0" y1="134.0" x2="187.5" y2="173.0" stroke="#64748b" stroke-width="3"/>
<line x1="333.8" y1="82.0" x2="356.3" y2="147.0" stroke="#64748b" stroke-width="3"/>
<line x1="356.3" y1="147.0" x2="187.5" y2="173.0" stroke="#64748b" stroke-width="3"/>
<line x1="187.5" y1="173.0" x2="187.5" y2="225.0" stroke="#64748b" stroke-width="3"/>
<line x1="187.5" y1="225.0" x2="30.0" y2="225.0" stroke="#64748b" stroke-width="3"/>
<line x1="187.5" y1="225.0" x2="390.0" y2="290.0" stroke="#64748b" stroke-width="3"/>
<circle cx="187.5" cy="30.0" r="8" fill="#22c55e" stroke="#0f172a" stroke-width="1"/>
<text x="197.5" y="20.0" font-family="Arial" font-size="11" fill="#0f172a">start</text>
<circle cx="187.5" cy="82.0" r="8" fill="#3b82f6" stroke="#0f172a" stroke-width="1"/>
<text x="197.5" y="72.0" font-family="Arial" font-size="11" fill="#0f172a">1</text>
<circle cx="333.8" cy="82.0" r="8" fill="#94a3b8" stroke="#0f172a" stroke-width="1"/>
<text x="343.8" y="72.0" font-family="Arial" font-size="11" fill="#0f172a">detour_a</text>
<circle cx="356.3" cy="147.0" r="8" fill="#f59e0b" stroke="#0f172a" stroke-width="1"/>
<text x="366.3" y="137.0" font-family="Arial" font-size="11" fill="#0f172a">package</text>
<circle cx="187.5" cy="173.0" r="8" fill="#94a3b8" stroke="#0f172a" stroke-width="1"/>
<text x="197.5" y="163.0" font-family="Arial" font-size="11" fill="#0f172a">rejoin</text>
<circle cx="187.5" cy="225.0" r="8" fill="#3b82f6" stroke="#0f172a" stroke-width="1"/>
<text x="197.5" y="215.0" font-family="Arial" font-size="11" fill="#0f172a">2</text>
<circle cx="390.0" cy="290.0" r="8" fill="#ef4444" stroke="#0f172a" stroke-width="1"/>
<text x="400.0" y="280.0" font-family="Arial" font-size="11" fill="#0f172a">destination</text>
<circle cx="30.0" cy="134.0" r="8" fill="#94a3b8" stroke="#0f172a" stroke-width="1"/>
<text x="40.0" y="124.0" font-family="Arial" font-size="11" fill="#0f172a">direct_bypass</text>
<circle cx="30.0" cy="225.0" r="8" fill="#94a3b8" stroke="#0f172a" stroke-width="1"/>
<text x="40.0" y="215.0" font-family="Arial" font-size="11" fill="#0f172a">dead_end_b</text>
</svg>
