<svg xmlns="http://www.w3.org/2000/svg" width="420" height="320" viewBox="0 0 420 320">
<rect width="100%" height="100%" fill="#f8fafc"/>
<text x="16" y="22" font-family="Arial" font-size="14" fill="#0f172a">level_027</text>
<line x1="30.0" y1="232.2" x2="75.0" y2="123.9" stroke="#64748b" stroke-width="3"/>
<line x1="75.0" y1="123.9" x2="273.0" y2="30.0" stroke="#64748b" stroke-width="3"/>
<line x1="75.0" y1="123.9" x2="156.0" y2="80.6" stroke="#64748b" stroke-width="3"/>
<line x1="156.0" y1="80.6" x2="282.0" y2="87.8" stroke="#64748b" stroke-width="3"/>
<line x1="282.0" y1="87.8" x2="282.0" y2="174.4" stroke="#64748b" stroke-width="3"/>
<line x1="282.0" y1="87.8" x2="354.0" y2="138.3" stroke="#64748b" stroke-width="3"/>
<line x1="354.0" y1="138.3" x2="327.0" y2="203.3" stroke="#64748b" stroke-width="3"/>
<line x1="327.0" y1="203.3" x2="327.0" y2="290.0" stroke="#64748b" stroke-width="3"/>
<line x1="327.0" y1="203.3" x2="390.0" y2="225.0" stroke="#64748b" stroke-width="3"/>
<circle cx="30.0" cy="232.2" r="8" fill="#22c55e" stroke="#0f172a" stroke-width="1"/>
<text x="40.0" y="222.2" font-family="Arial" font-size="11" fill="#0f172a">start</text>
<circle cx="75.0" cy="123.9" r="8" fill="#3b82f6" stroke="#0f172a" stroke-width="1"/>
<text x="85.0" y="113.9" font-family="Arial" font-size="11" fill="#0f172a">1</text>
<circle cx="156.0" cy="80.6" r="8" fill="#f59e0b" stroke="#0f172a" stroke-width="1"/>
<text x="166.0" y="70.6" font-family="Arial" font-size="11" fill="#0f172a">package</text>
<circle cx="282.0" cy="87.8" r="8" fill="#3b82f6" stroke="#0f172a" stroke-width="1"/>
<text x="292.0" y="77.8" font-family="Arial" font-size="11" fill="#0f172a">2</text>
<circle cx="354.0" cy="138.3" r="8" fill="#94a3b8" stroke="#0f172a" stroke-width="1"/>
<text x="364.0" y="128.3" font-family="Arial" font-size="11" fill="#0f172a">route_mid</text>
<circle cx="327.0" cy="203.3" r="8" fill="#3b82f6" stroke="#0f172a" stroke-width="1"/>
<text x="337.0" y="193.3" font-family="Arial" font-size="11" fill="#0f172a">3</text>
<circle cx="390.0" cy="225.0" r="8" fill="#ef4444" stroke="#0f172a" stroke-width="1"/>
<text x="400.0" y="215.0" font-family="Arial" font-size="11" fill="#0f172a">destination</text>
<circle cx="273.0" cy="30.0" r="8" fill="#94a3b8" stroke="#0f172a" stroke-width="1"/>
<text x="283.0" y="20.0" font-family="Arial" font-size="11" fill="#0f172a">dead_end_a</text>
<circle cx="282.0" cy="174.4" r="8" fill="#94a3b8" stroke="#0f172a" stroke-width="1"/>
<text x="292.0" y="164.4" font-family="Arial" font-size="11" fill="#0f172a">dead_end_b</text>
<circle cx="327.0" cy="290.0" r="8" fill="#94a3b8" stroke="#0f172a" stroke-width="1"/>
<text x="337.0" y="280.0" font-family="Arial" font-size="11" fill="#0f172a">dead_end_c</text>
</svg>
