<svg xmlns="http://www.w3.org/2000/svg" width="420" height="320" viewBox="0 0 420 320">
<rect width="100%" height="100%" fill="#f8fafc"/>
<text x="16" y="22" font-family="Arial" font-size="14" fill="#0f172a">level_029</text>
<line x1="30.0" y1="176.2" x2="84.0" y2="176.2" stroke="#64748b" stroke-width="3"/>
<line x1="84.0" y1="176.2" x2="84.0" y2="30.0" stroke="#64748b" stroke-width="3"/>
<line x1="84.0" y1="176.2" x2="129.0" y2="176.2" stroke="#64748b" stroke-width="3"/>
<line x1="129.0" y1="176.2" x2="183.0" y2="176.2" stroke="#64748b" stroke-width="3"/>
<line x1="183.0" y1="176.2" x2="237.0" y2="176.2" stroke="#64748b" stroke-width="3"/>
<line x1="237.0" y1="176.2" x2="237.0" y2="95.0" stroke="#64748b" stroke-width="3"/>
<line x1="237.0" y1="176.2" x2="291.0" y2="111.2" stroke="#64748b" stroke-width="3"/>
<line x1="291.0" y1="111.2" x2="336.0" y2="176.2" stroke="#64748b" stroke-width="3"/>
<line x1="336.0" y1="176.2" x2="336.0" y2="290.0" stroke="#64748b" stroke-width="3"/>
<line x1="336.0" y1="176.2" x2="390.0" y2="176.2" stroke="#64748b" stroke-width="3"/>
<circle cx="30.0" cy="176.2" r="8" fill="#22c55e" stroke="#0f172a" stroke-width="1"/>
<text x="40.0" y="166.2" font-family="Arial" font-size="11" fill="#0f172a">start</text>
<circle cx="84.0" cy="176.2" r="8" fill="#3b82f6" stroke="#0f172a" stroke-width="1"/>
<text x="94.0" y="166.2" font-family="Arial" font-size="11" fill="#0f172a">1</text>
<circle cx="129.0" cy="176.2" r="8" fill="#94a3b8" stroke="#0f172a" stroke-width="1"/>
<text x="139.0" y="166.2" font-family="Arial" font-size="11" fill="#0f172a">branch_a</text>
<circle cx="183.0" cy="176.2" r="8" fill="#94a3b8" stroke="#0f172a" stroke-width="1"/>
<text x="193.0" y="166.2" font-family="Arial" font-size="11" fill="#0f172a">rejoin</text>
<circle cx="237.0" cy="176.2" r="8" fill="#3b82f6" stroke="#0f172a" stroke-width="1"/>
<text x="247.0" y="166.2" font-family="Arial" font-size="11" fill="#0f172a">2</text>
<circle cx="291.0" cy="111.2" r="8" fill="#f59e0b" stroke="#0f172a" stroke-width="1"/>
<text x="301.0" y="101.2" font-family="Arial" font-size="11" fill="#0f172a">package</text>
<circle cx="336.0" cy="176.2" r="8" fill="#3b82f6" stroke="#0f172a" stroke-width="1"/>
<text x="346.0" y="166.2" font-family="Arial" font-size="11" fill="#0f172a">3</text>
<circle cx="390.0" cy="176.2" r="8" fill="#ef4444" stroke="#0f172a" stroke-width="1"/>
<text x="400.0" y="166.2" font-family="Arial" font-size="11" fill="#0f172a">destination</text>
<circle cx="84.0" cy="30.0" r="8" fill="#94a3b8" stroke="#0f172a" stroke-width="1"/>
<text x="94.0" y="20.0" font-family="Arial" font-size="11" fill="#0f172a">dead_end_a</text>
<circle cx="237.0" cy="95.0" r="8" fill="#94a3b8" stroke="#0f172a" stroke-width="1"/>
<text x="247.0" y="85.0" font-family="Arial" font-size="11" fill="#0f172a">dead_end_b</text>
<circle cx="336.0" cy="290.0" r="8" fill="#94a3b8" stroke="#0f172a" stroke-width="1"/>
<text x="346.0" y="280.0" font-family="Arial" font-size="11" fill="#0f172a">dead_end_c</text>
</svg>
