<svg xmlns="http://www.w3.org/2000/svg" width="420" height="320" viewBox="0 0 420 320">
<rect width="100%" height="100%" fill="#f8fafc"/>
<text x="16" y="22" font-family="Arial" font-size="14" fill="#0f172a">level_007</text>
<line x1="30.0" y1="88.7" x2="113.7" y2="139.0" stroke="#64748b" stroke-width="3"/>
<line x1="113.7" y1="139.0" x2="214.2" y2="30.0" stroke="#64748b" stroke-width="3"/>
<line x1="113.7" y1="139.0" x2="214.2" y2="264.8" stroke="#64748b" stroke-width="3"/>
<line x1="214.2" y1="264.8" x2="306.3" y2="181.0" stroke="#64748b" stroke-width="3"/>
<line x1="306.3" y1="181.0" x2="390.0" y2="80.3" stroke="#64748b" stroke-width="3"/>
<line x1="306.3" y1="181.0" x2="390.0" y2="290.0" stroke="#64748b" stroke-width="3"/>
<circle cx="30.0" cy="88.7" r="8" fill="#22c55e" stroke="#0f172a" stroke-width="1"/>
<text x="40.0" y="78.7" font-family="Arial" font-size="11" fill="#0f172a">start</text>
<circle cx="113.7" cy="139.0" r="8" fill="#3b82f6" stroke="#0f172a" stroke-width="1"/>
<text x="123.7" y="129.0" font-family="Arial" font-size="11" fill="#0f172a">1</text>
<circle cx="214.2" cy="30.0" r="8" fill="#94a3b8" stroke="#0f172a" stroke-width="1"/>
<text x="224.2" y="20.0" font-family="Arial" font-size="11" fill="#0f172a">right_bypass</text>
<circle cx="214.2" cy="264.8" r="8" fill="#f59e0b" stroke="#0f172a" stroke-width="1"/>
<text x="224.2" y="254.8" font-family="Arial" font-size="11" fill="#0f172a">package</text>
<circle cx="306.3" cy="181.0" r="8" fill="#3b82f6" stroke="#0f172a" stroke-width="1"/>
<text x="316.3" y="171.0" font-family="Arial" font-size="11" fill="#0f172a">2</text>
<circle cx="390.0" cy="80.3" r="8" fill="#94a3b8" stroke="#0f172a" stroke-width="1"/>
<text x="400.0" y="70.3" font-family="Arial" font-size="11" fill="#0f172a">right_dead_end</text>
<circle cx="390.0" cy="290.0" r="8" fill="#ef4444" stroke="#0f172a" stroke-width="1"/>
<text x="400.0" y="280.0" font-family="Arial" font-size="11" fill="#0f172a">destination</text>
</svg>
