<svg xmlns="http://www.w3.org/2000/svg" width="420" height="320" viewBox="0 0 420 320">
<rect width="100%" height="100%" fill="#f8fafc"/>
<text x="16" y="22" font-family="Arial" font-size="14" fill="#0f172a">level_013</text>
<line x1="248.6" y1="30.0" x2="312.9" y2="71.1" stroke="#64748b" stroke-width="3"/>
<line x1="312.9" y1="71.1" x2="30.0" y2="112.1" stroke="#64748b" stroke-width="3"/>
<line x1="312.9" y1="71.1" x2="312.9" y2="112.1" stroke="#64748b" stroke-width="3"/>
<line x1="30.0" y1="112.1" x2="248.6" y2="207.9" stroke="#64748b" stroke-width="3"/>
<line x1="312.9" y1="112.1" x2="390.0" y2="160.0" stroke="#64748b" stroke-width="3"/>
<line x1="390.0" y1="160.0" x2="248.6" y2="207.9" stroke="#64748b" stroke-width="3"/>
<line x1="248.6" y1="207.9" x2="312.9" y2="248.9" stroke="#64748b" stroke-width="3"/>
<line x1="312.9" y1="248.9" x2="107.1" y2="255.8" stroke="#64748b" stroke-width="3"/>
<line x1="312.9" y1="248.9" x2="390.0" y2="290.0" stroke="#64748b" stroke-width="3"/>
<circle cx="248.6" cy="30.0" r="8" fill="#22c55e" stroke="#0f172a" stroke-width="1"/>
<text x="258.6" y="20.0" font-family="Arial" font-size="11" fill="#0f172a">start</text>
<circle cx="312.9" cy="71.1" r="8" fill="#3b82f6" stroke="#0f172a" stroke-width="1"/>
<text x="322.9" y="61.1" font-family="Arial" font-size="11" fill="#0f172a">1</text>
<circle cx="312.9" cy="112.1" r="8" fill="#94a3b8" stroke="#0f172a" stroke-width="1"/>
<text x="322.9" y="102.1" font-family="Arial" font-size="11" fill="#0f172a">upper_branch</text>
<circle cx="390.0" cy="160.0" r="8" fill="#f59e0b" stroke="#0f172a" stroke-width="1"/>
<text x="400.0" y="150.0" font-family="Arial" font-size="11" fill="#0f172a">package</text>
<circle cx="248.6" cy="207.9" r="8" fill="#94a3b8" stroke="#0f172a" stroke-width="1"/>
<text x="258.6" y="197.9" font-family="Arial" font-size="11" fill="#0f172a">rejoin</text>
<circle cx="312.9" cy="248.9" r="8" fill="#3b82f6" stroke="#0f172a" stroke-width="1"/>
<text x="322.9" y="238.9" font-family="Arial" font-size="11" fill="#0f172a">2</text>
<circle cx="390.0" cy="290.0" r="8" fill="#ef4444" stroke="#0f172a" stroke-width="1"/>
<text x="400.0" y="280.0" font-family="Arial" font-size="11" fill="#0f172a">destination</text>
<circle cx="30.0" cy="112.1" r="8" fill="#94a3b8" stroke="#0f172a" stroke-width="1"/>
<text x="40.0" y="102.1" font-family="Arial" font-size="11" fill="#0f172a">lower_shortcut</text>
<circle cx="107.1" cy="255.8" r="8" fill="#94a3b8" stroke="#0f172a" stroke-width="1"/>
<text x="117.1" y="245.8" font-family="Arial" font-size="11" fill="#0f172a">dead_end_b</text>
</svg>
