<svg xmlns="http://www.w3.org/2000/svg" width="420" height="320" viewBox="0 0 420 320">
<rect width="100%" height="100%" fill="#f8fafc"/>
<text x="16" y="22" font-family="Arial" font-size="14" fill="#0f172a">level_023</text>
<line x1="30.0" y1="221.9" x2="95.5" y2="203.3" stroke="#64748b" stroke-width="3"/>
<line x1="95.5" y1="203.3" x2="95.5" y2="290.0" stroke="#64748b" stroke-width="3"/>
<line x1="95.5" y1="203.3" x2="169.1" y2="85.7" stroke="#64748b" stroke-width="3"/>
<line x1="169.1" y1="85.7" x2="242.7" y2="153.8" stroke="#64748b" stroke-width="3"/>
<line x1="242.7" y1="153.8" x2="242.7" y2="30.0" stroke="#64748b" stroke-width="3"/>
<line x1="242.7" y1="153.8" x2="316.4" y2="122.9" stroke="#64748b" stroke-width="3"/>
<line x1="316.4" y1="122.9" x2="316.4" y2="290.0" stroke="#64748b" stroke-width="3"/>
<line x1="316.4" y1="122.9" x2="390.0" y2="91.9" stroke="#64748b" stroke-width="3"/>
<circle cx="30.0" cy="221.9" r="8" fill="#22c55e" stroke="#0f172a" stroke-width="1"/>
<text x="40.0" y="211.9" font-family="Arial" font-size="11" fill="#0f172a">start</text>
<circle cx="95.5" cy="203.3" r="8" fill="#3b82f6" stroke="#0f172a" stroke-width="1"/>
<text x="105.5" y="193.3" font-family="Arial" font-size="11" fill="#0f172a">1</text>
<circle cx="169.1" cy="85.7" r="8" fill="#f59e0b" stroke="#0f172a" stroke-width="1"/>
<text x="179.1" y="75.7" font-family="Arial" font-size="11" fill="#0f172a">package</text>
<circle cx="242.7" cy="153.8" r="8" fill="#3b82f6" stroke="#0f172a" stroke-width="1"/>
<text x="252.7" y="143.8" font-family="Arial" font-size="11" fill="#0f172a">2</text>
<circle cx="316.4" cy="122.9" r="8" fill="#3b82f6" stroke="#0f172a" stroke-width="1"/>
<text x="326.4" y="112.9" font-family="Arial" font-size="11" fill="#0f172a">3</text>
<circle cx="390.0" cy="91.9" r="8" fill="#ef4444" stroke="#0f172a" stroke-width="1"/>
<text x="400.0" y="81.9" font-family="Arial" font-size="11" fill="#0f172a">destination</text>
<circle cx="95.5" cy="290.0" r="8" fill="#94a3b8" stroke="#0f172a" stroke-width="1"/>
<text x="105.5" y="280.0" font-family="Arial" font-size="11" fill="#0f172a">multi_switch_chain_stair_step_dead_end_a</text>
<circle cx="242.7" cy="30.0" r="8" fill="#94a3b8" stroke="#0f172a" stroke-width="1"/>
<text x="252.7" y="20.0" font-family="Arial" font-size="11" fill="#0f172a">multi_switch_chain_stair_step_dead_end_b</text>
<circle cx="316.4" cy="290.0" r="8" fill="#94a3b8" stroke="#0f172a" stroke-width="1"/>
<text x="326.4" y="280.0" font-family="Arial" font-size="11" fill="#0f172a">multi_switch_chain_stair_step_dead_end_c</text>
</svg>
