<svg xmlns="http://www.w3.org/2000/svg" width="420" height="320" viewBox="0 0 420 320">
<rect width="100%" height="100%" fill="#f8fafc"/>
<text x="16" y="22" font-family="Arial" font-size="14" fill="#0f172a">level_046</text>
<text x="16" y="42" font-family="Arial" font-size="11" fill="#9a3412">4-way switch</text>
<line x1="30.0" y1="67.1" x2="72.9" y2="85.7" stroke="#64748b" stroke-width="3"/>
<line x1="72.9" y1="85.7" x2="210.0" y2="160.0" stroke="#64748b" stroke-width="3"/>
<line x1="210.0" y1="160.0" x2="64.3" y2="215.7" stroke="#64748b" stroke-width="3"/>
<line x1="210.0" y1="160.0" x2="210.0" y2="290.0" stroke="#64748b" stroke-width="3"/>
<line x1="210.0" y1="160.0" x2="390.0" y2="67.1" stroke="#64748b" stroke-width="3"/>
<line x1="210.0" y1="160.0" x2="210.0" y2="30.0" stroke="#64748b" stroke-width="3"/>
<line x1="210.0" y1="290.0" x2="287.1" y2="215.7" stroke="#64748b" stroke-width="3"/>
<line x1="287.1" y1="215.7" x2="210.0" y2="160.0" stroke="#64748b" stroke-width="3"/>
<circle cx="30.0" cy="67.1" r="8" fill="#22c55e" stroke="#0f172a" stroke-width="1"/>
<text x="40.0" y="57.1" font-family="Arial" font-size="11" fill="#0f172a">start</text>
<circle cx="72.9" cy="85.7" r="8" fill="#94a3b8" stroke="#0f172a" stroke-width="1"/>
<text x="82.9" y="75.7" font-family="Arial" font-size="11" fill="#0f172a">entry</text>
<circle cx="210.0" cy="160.0" r="8" fill="#f97316" stroke="#0f172a" stroke-width="1"/>
<text x="220.0" y="150.0" font-family="Arial" font-size="11" fill="#0f172a">2</text>
<circle cx="210.0" cy="290.0" r="8" fill="#f59e0b" stroke="#0f172a" stroke-width="1"/>
<text x="220.0" y="280.0" font-family="Arial" font-size="11" fill="#0f172a">package</text>
<circle cx="287.1" cy="215.7" r="8" fill="#94a3b8" stroke="#0f172a" stroke-width="1"/>
<text x="297.1" y="205.7" font-family="Arial" font-size="11" fill="#0f172a">return_node</text>
<circle cx="390.0" cy="67.1" r="8" fill="#ef4444" stroke="#0f172a" stroke-width="1"/>
<text x="400.0" y="57.1" font-family="Arial" font-size="11" fill="#0f172a">destination</text>
<circle cx="64.3" cy="215.7" r="8" fill="#94a3b8" stroke="#0f172a" stroke-width="1"/>
<text x="74.3" y="205.7" font-family="Arial" font-size="11" fill="#0f172a">dead_end</text>
<circle cx="210.0" cy="30.0" r="8" fill="#94a3b8" stroke="#0f172a" stroke-width="1"/>
<text x="220.0" y="20.0" font-family="Arial" font-size="11" fill="#0f172a">side_branch</text>
</svg>
