<svg xmlns="http://www.w3.org/2000/svg" width="420" height="320" viewBox="0 0 420 320">
<rect width="100%" height="100%" fill="#f8fafc"/>
<text x="16" y="22" font-family="Arial" font-size="14" fill="#0f172a">level_015</text>
<line x1="30.0" y1="200.6" x2="110.0" y2="176.2" stroke="#64748b" stroke-width="3"/>
<line x1="110.0" y1="176.2" x2="190.0" y2="290.0" stroke="#64748b" stroke-width="3"/>
<line x1="110.0" y1="176.2" x2="206.0" y2="54.4" stroke="#64748b" stroke-width="3"/>
<line x1="206.0" y1="54.4" x2="270.0" y2="95.0" stroke="#64748b" stroke-width="3"/>
<line x1="270.0" y1="95.0" x2="326.0" y2="233.1" stroke="#64748b" stroke-width="3"/>
<line x1="270.0" y1="95.0" x2="342.0" y2="127.5" stroke="#64748b" stroke-width="3"/>
<line x1="342.0" y1="127.5" x2="390.0" y2="273.8" stroke="#64748b" stroke-width="3"/>
<line x1="342.0" y1="127.5" x2="390.0" y2="30.0" stroke="#64748b" stroke-width="3"/>
<circle cx="30.0" cy="200.6" r="8" fill="#22c55e" stroke="#0f172a" stroke-width="1"/>
<text x="40.0" y="190.6" font-family="Arial" font-size="11" fill="#0f172a">start</text>
<circle cx="110.0" cy="176.2" r="8" fill="#3b82f6" stroke="#0f172a" stroke-width="1"/>
<text x="120.0" y="166.2" font-family="Arial" font-size="11" fill="#0f172a">1</text>
<circle cx="190.0" cy="290.0" r="8" fill="#94a3b8" stroke="#0f172a" stroke-width="1"/>
<text x="200.0" y="280.0" font-family="Arial" font-size="11" fill="#0f172a">double_bypass</text>
<circle cx="206.0" cy="54.4" r="8" fill="#f59e0b" stroke="#0f172a" stroke-width="1"/>
<text x="216.0" y="44.4" font-family="Arial" font-size="11" fill="#0f172a">package</text>
<circle cx="270.0" cy="95.0" r="8" fill="#3b82f6" stroke="#0f172a" stroke-width="1"/>
<text x="280.0" y="85.0" font-family="Arial" font-size="11" fill="#0f172a">2</text>
<circle cx="326.0" cy="233.1" r="8" fill="#94a3b8" stroke="#0f172a" stroke-width="1"/>
<text x="336.0" y="223.1" font-family="Arial" font-size="11" fill="#0f172a">double_dead_end_a</text>
<circle cx="342.0" cy="127.5" r="8" fill="#3b82f6" stroke="#0f172a" stroke-width="1"/>
<text x="352.0" y="117.5" font-family="Arial" font-size="11" fill="#0f172a">3</text>
<circle cx="390.0" cy="273.8" r="8" fill="#94a3b8" stroke="#0f172a" stroke-width="1"/>
<text x="400.0" y="263.8" font-family="Arial" font-size="11" fill="#0f172a">double_dead_end_b</text>
<circle cx="390.0" cy="30.0" r="8" fill="#ef4444" stroke="#0f172a" stroke-width="1"/>
<text x="400.0" y="20.0" font-family="Arial" font-size="11" fill="#0f172a">destination</text>
</svg>
