<svg xmlns="http://www.w3.org/2000/svg" width="420" height="320" viewBox="0 0 420 320">
<rect width="100%" height="100%" fill="#f8fafc"/>
<text x="16" y="22" font-family="Arial" font-size="14" fill="#0f172a">level_013</text>
<line x1="30.0" y1="197.7" x2="120.0" y2="181.0" stroke="#64748b" stroke-width="3"/>
<line x1="120.0" y1="181.0" x2="210.0" y2="290.0" stroke="#64748b" stroke-width="3"/>
<line x1="120.0" y1="181.0" x2="218.2" y2="46.8" stroke="#64748b" stroke-width="3"/>
<line x1="218.2" y1="46.8" x2="300.0" y2="139.0" stroke="#64748b" stroke-width="3"/>
<line x1="300.0" y1="139.0" x2="390.0" y2="231.3" stroke="#64748b" stroke-width="3"/>
<line x1="300.0" y1="139.0" x2="390.0" y2="30.0" stroke="#64748b" stroke-width="3"/>
<circle cx="30.0" cy="197.7" r="8" fill="#22c55e" stroke="#0f172a" stroke-width="1"/>
<text x="40.0" y="187.7" font-family="Arial" font-size="11" fill="#0f172a">start</text>
<circle cx="120.0" cy="181.0" r="8" fill="#3b82f6" stroke="#0f172a" stroke-width="1"/>
<text x="130.0" y="171.0" font-family="Arial" font-size="11" fill="#0f172a">1</text>
<circle cx="210.0" cy="290.0" r="8" fill="#94a3b8" stroke="#0f172a" stroke-width="1"/>
<text x="220.0" y="280.0" font-family="Arial" font-size="11" fill="#0f172a">left_bypass</text>
<circle cx="218.2" cy="46.8" r="8" fill="#f59e0b" stroke="#0f172a" stroke-width="1"/>
<text x="228.2" y="36.8" font-family="Arial" font-size="11" fill="#0f172a">package</text>
<circle cx="300.0" cy="139.0" r="8" fill="#3b82f6" stroke="#0f172a" stroke-width="1"/>
<text x="310.0" y="129.0" font-family="Arial" font-size="11" fill="#0f172a">2</text>
<circle cx="390.0" cy="231.3" r="8" fill="#94a3b8" stroke="#0f172a" stroke-width="1"/>
<text x="400.0" y="221.3" font-family="Arial" font-size="11" fill="#0f172a">left_dead_end</text>
<circle cx="390.0" cy="30.0" r="8" fill="#ef4444" stroke="#0f172a" stroke-width="1"/>
<text x="400.0" y="20.0" font-family="Arial" font-size="11" fill="#0f172a">destination</text>
</svg>
