<svg xmlns="http://www.w3.org/2000/svg" width="420" height="320" viewBox="0 0 420 320">
<rect width="100%" height="100%" fill="#f8fafc"/>
<text x="16" y="22" font-family="Arial" font-size="14" fill="#0f172a">level_021</text>
<line x1="174.0" y1="30.0" x2="174.0" y2="80.3" stroke="#64748b" stroke-width="3"/>
<line x1="174.0" y1="80.3" x2="30.0" y2="134.8" stroke="#64748b" stroke-width="3"/>
<line x1="174.0" y1="80.3" x2="294.0" y2="80.3" stroke="#64748b" stroke-width="3"/>
<line x1="30.0" y1="134.8" x2="174.0" y2="172.6" stroke="#64748b" stroke-width="3"/>
<line x1="294.0" y1="80.3" x2="294.0" y2="126.5" stroke="#64748b" stroke-width="3"/>
<line x1="294.0" y1="126.5" x2="390.0" y2="92.9" stroke="#64748b" stroke-width="3"/>
<line x1="294.0" y1="126.5" x2="366.0" y2="147.4" stroke="#64748b" stroke-width="3"/>
<line x1="366.0" y1="147.4" x2="174.0" y2="172.6" stroke="#64748b" stroke-width="3"/>
<line x1="174.0" y1="172.6" x2="174.0" y2="227.1" stroke="#64748b" stroke-width="3"/>
<line x1="174.0" y1="227.1" x2="30.0" y2="227.1" stroke="#64748b" stroke-width="3"/>
<line x1="174.0" y1="227.1" x2="270.0" y2="252.3" stroke="#64748b" stroke-width="3"/>
<line x1="270.0" y1="252.3" x2="342.0" y2="290.0" stroke="#64748b" stroke-width="3"/>
<circle cx="174.0" cy="30.0" r="8" fill="#22c55e" stroke="#0f172a" stroke-width="1"/>
<text x="184.0" y="20.0" font-family="Arial" font-size="11" fill="#0f172a">start</text>
<circle cx="174.0" cy="80.3" r="8" fill="#3b82f6" stroke="#0f172a" stroke-width="1"/>
<text x="184.0" y="70.3" font-family="Arial" font-size="11" fill="#0f172a">1</text>
<circle cx="294.0" cy="80.3" r="8" fill="#94a3b8" stroke="#0f172a" stroke-width="1"/>
<text x="304.0" y="70.3" font-family="Arial" font-size="11" fill="#0f172a">detour_a</text>
<circle cx="294.0" cy="126.5" r="8" fill="#3b82f6" stroke="#0f172a" stroke-width="1"/>
<text x="304.0" y="116.5" font-family="Arial" font-size="11" fill="#0f172a">2</text>
<circle cx="366.0" cy="147.4" r="8" fill="#f59e0b" stroke="#0f172a" stroke-width="1"/>
<text x="376.0" y="137.4" font-family="Arial" font-size="11" fill="#0f172a">package</text>
<circle cx="174.0" cy="172.6" r="8" fill="#94a3b8" stroke="#0f172a" stroke-width="1"/>
<text x="184.0" y="162.6" font-family="Arial" font-size="11" fill="#0f172a">rejoin</text>
<circle cx="174.0" cy="227.1" r="8" fill="#3b82f6" stroke="#0f172a" stroke-width="1"/>
<text x="184.0" y="217.1" font-family="Arial" font-size="11" fill="#0f172a">3</text>
<circle cx="270.0" cy="252.3" r="8" fill="#94a3b8" stroke="#0f172a" stroke-width="1"/>
<text x="280.0" y="242.3" font-family="Arial" font-size="11" fill="#0f172a">exit_gate_lane</text>
<circle cx="342.0" cy="290.0" r="8" fill="#ef4444" stroke="#0f172a" stroke-width="1"/>
<text x="352.0" y="280.0" font-family="Arial" font-size="11" fill="#0f172a">destination</text>
<circle cx="30.0" cy="134.8" r="8" fill="#94a3b8" stroke="#0f172a" stroke-width="1"/>
<text x="40.0" y="124.8" font-family="Arial" font-size="11" fill="#0f172a">direct_bypass</text>
<circle cx="390.0" cy="92.9" r="8" fill="#94a3b8" stroke="#0f172a" stroke-width="1"/>
<text x="400.0" y="82.9" font-family="Arial" font-size="11" fill="#0f172a">dead_end_b</text>
<circle cx="30.0" cy="227.1" r="8" fill="#94a3b8" stroke="#0f172a" stroke-width="1"/>
<text x="40.0" y="217.1" font-family="Arial" font-size="11" fill="#0f172a">dead_end_c</text>
</svg>
