<svg xmlns="http://www.w3.org/2000/svg" width="420" height="320" viewBox="0 0 420 320">
<rect width="100%" height="100%" fill="#f8fafc"/>
<text x="16" y="22" font-family="Arial" font-size="14" fill="#0f172a">level_032</text>
<line x1="128.2" y1="30.0" x2="193.6" y2="72.2" stroke="#64748b" stroke-width="3"/>
<line x1="193.6" y1="72.2" x2="390.0" y2="72.2" stroke="#64748b" stroke-width="3"/>
<line x1="193.6" y1="72.2" x2="259.1" y2="114.3" stroke="#64748b" stroke-width="3"/>
<line x1="259.1" y1="114.3" x2="193.6" y2="163.5" stroke="#64748b" stroke-width="3"/>
<line x1="193.6" y1="163.5" x2="390.0" y2="163.5" stroke="#64748b" stroke-width="3"/>
<line x1="193.6" y1="163.5" x2="62.7" y2="205.7" stroke="#64748b" stroke-width="3"/>
<line x1="62.7" y1="205.7" x2="259.1" y2="205.7" stroke="#64748b" stroke-width="3"/>
<line x1="62.7" y1="205.7" x2="193.6" y2="247.8" stroke="#64748b" stroke-width="3"/>
<line x1="193.6" y1="247.8" x2="390.0" y2="247.8" stroke="#64748b" stroke-width="3"/>
<line x1="193.6" y1="247.8" x2="30.0" y2="290.0" stroke="#64748b" stroke-width="3"/>
<circle cx="128.2" cy="30.0" r="8" fill="#22c55e" stroke="#0f172a" stroke-width="1"/>
<text x="138.2" y="20.0" font-family="Arial" font-size="11" fill="#0f172a">start</text>
<circle cx="193.6" cy="72.2" r="8" fill="#3b82f6" stroke="#0f172a" stroke-width="1"/>
<text x="203.6" y="62.2" font-family="Arial" font-size="11" fill="#0f172a">1</text>
<circle cx="259.1" cy="114.3" r="8" fill="#f59e0b" stroke="#0f172a" stroke-width="1"/>
<text x="269.1" y="104.3" font-family="Arial" font-size="11" fill="#0f172a">package</text>
<circle cx="193.6" cy="163.5" r="8" fill="#3b82f6" stroke="#0f172a" stroke-width="1"/>
<text x="203.6" y="153.5" font-family="Arial" font-size="11" fill="#0f172a">2</text>
<circle cx="62.7" cy="205.7" r="8" fill="#3b82f6" stroke="#0f172a" stroke-width="1"/>
<text x="72.7" y="195.7" font-family="Arial" font-size="11" fill="#0f172a">3</text>
<circle cx="193.6" cy="247.8" r="8" fill="#3b82f6" stroke="#0f172a" stroke-width="1"/>
<text x="203.6" y="237.8" font-family="Arial" font-size="11" fill="#0f172a">4</text>
<circle cx="30.0" cy="290.0" r="8" fill="#ef4444" stroke="#0f172a" stroke-width="1"/>
<text x="40.0" y="280.0" font-family="Arial" font-size="11" fill="#0f172a">destination</text>
<circle cx="390.0" cy="72.2" r="8" fill="#94a3b8" stroke="#0f172a" stroke-width="1"/>
<text x="400.0" y="62.2" font-family="Arial" font-size="11" fill="#0f172a">multi_switch_chain_zigzag_dead_end_a</text>
<circle cx="390.0" cy="163.5" r="8" fill="#94a3b8" stroke="#0f172a" stroke-width="1"/>
<text x="400.0" y="153.5" font-family="Arial" font-size="11" fill="#0f172a">multi_switch_chain_zigzag_dead_end_b</text>
<circle cx="259.1" cy="205.7" r="8" fill="#94a3b8" stroke="#0f172a" stroke-width="1"/>
<text x="269.1" y="195.7" font-family="Arial" font-size="11" fill="#0f172a">multi_switch_chain_zigzag_dead_end_c</text>
<circle cx="390.0" cy="247.8" r="8" fill="#94a3b8" stroke="#0f172a" stroke-width="1"/>
<text x="400.0" y="237.8" font-family="Arial" font-size="11" fill="#0f172a">multi_switch_chain_zigzag_dead_end_d</text>
</svg>
